<svg xmlns="http://www.w3.org/2000/svg" viewBox="0 0 308.33 250"><defs><style>.cls-1{fill:none;stroke-width:5px;}.cls-1,.cls-2,.cls-3{stroke:#2a1000;stroke-miterlimit:10;}.cls-2{fill:#58ae5c;stroke-width:0.5px;}.cls-3{fill:#2a1000;stroke-width:0.75px;}</style></defs><title>cycleArtboard 1</title><g id="Layer_2" data-name="Layer 2"><circle class="cls-1" cx="63.69" cy="184.55" r="60"/><circle class="cls-1" cx="243.69" cy="184.55" r="60"/></g><g id="Layer_3" data-name="Layer 3"><path class="cls-2" d="M21.85,219.83s-15.66-23.55-6.67-50.74C22.34,147.46,44.46,138,44.46,138s30.9-15.61,56.92,11.55c0,0,7.64,8.94,9.6,19.52a43.38,43.38,0,0,1-4.07,27.65S103,209.58,83.49,221A46.7,46.7,0,0,1,64,225.36v14.8A58.93,58.93,0,0,1,45.59,227s-7.64-8.62-8.94-15.45c0,0,.16-7.32,7.81-15.12,0,0,8.78-10.08,19.52-14.47v14.31s14.31-.49,28-17.4c0,0,6.51-7.16,5-15.12,0,0-2-8.62-8.78-14.15a74.21,74.21,0,0,0-10.73-8.29s-11.06-6-13.5-6.34v15.61s-13.17-1.14-23.58,6.67c0,0-13.34,9.43-18.05,25C22.34,182.26,14.86,198.85,21.85,219.83Z"/><path class="cls-2" d="M201.15,219.49s-15.66-23.55-6.67-50.74c7.16-21.63,29.27-31.06,29.27-31.06s30.9-15.61,56.92,11.55c0,0,7.64,8.94,9.6,19.52a43.38,43.38,0,0,1-4.07,27.65s-3.9,12.85-23.42,24.23A46.7,46.7,0,0,1,243.27,225v14.8a58.93,58.93,0,0,1-18.38-13.17s-7.64-8.62-8.94-15.45c0,0,.16-7.32,7.81-15.12,0,0,8.78-10.08,19.52-14.47v14.31s14.31-.49,28-17.4c0,0,6.51-7.16,5-15.12,0,0-2-8.62-8.78-14.15a74.21,74.21,0,0,0-10.73-8.29s-11.06-6-13.5-6.34v15.61s-13.17-1.14-23.58,6.67c0,0-13.34,9.43-18.05,25C201.63,181.93,194.15,198.51,201.15,219.49Z"/></g><g id="Layer_4" data-name="Layer 4"><path class="cls-3" d="M140.74,195.2V142.58s-25.27-13.29-33.34-18.5-21.1-10.16-19.8-29.44c0,0,2.34-12.76,19.8-26.31,0,0,15.63-20.58,31.26-29.7,0,0,8.34-5.21,15.63,2.08,0,0,2.61.78,9.12,9.38,0,0,10.42,17.19,16.67,30.22,0,0,14.59-2.08,27.87,1,0,0,7.82,2.08,5.21,9.38,0,0,0,8.6-12,9.12l-31.26-.26s-1,1.3-17.19-23.45l-23.18,25.53,34.39,22.4.52,72.94s1.56,9.38-8.6,9.38c0,0-10.94-1.3-10.94-2.87C144.91,203.54,140.74,203.8,140.74,195.2Z"/><circle class="cls-3" cx="179.03" cy="24.05" r="21.36"/></g></svg>