<svg xmlns="http://www.w3.org/2000/svg" viewBox="0 0 500 500"><defs><style>.cls-1{fill:none;stroke-width:5px;}.cls-1,.cls-2,.cls-3{stroke:#2a1000;stroke-miterlimit:10;}.cls-2{fill:#58ae5c;stroke-width:0.5px;}.cls-3{fill:#2a1000;stroke-width:0.75px;}</style></defs><title>cycleArtboard 1</title><g id="Layer_2" data-name="Layer 2"><circle class="cls-1" cx="140" cy="280.93" r="60"/><circle class="cls-1" cx="320" cy="280.93" r="60"/></g><g id="Layer_3" data-name="Layer 3"><path class="cls-2" d="M98.16,316.21s-15.66-23.55-6.67-50.74c7.16-21.63,29.27-31.06,29.27-31.06s30.9-15.61,56.92,11.55c0,0,7.64,8.94,9.6,19.52a43.38,43.38,0,0,1-4.07,27.65s-3.9,12.85-23.42,24.23a46.7,46.7,0,0,1-19.52,4.39v14.8a58.93,58.93,0,0,1-18.38-13.17s-7.64-8.62-8.94-15.45c0,0,.16-7.32,7.81-15.12,0,0,8.78-10.08,19.52-14.47v14.31s14.31-.49,28-17.4c0,0,6.51-7.16,5-15.12,0,0-2-8.62-8.78-14.15a74.21,74.21,0,0,0-10.73-8.29s-11.06-6-13.5-6.34v15.61s-13.17-1.14-23.58,6.67c0,0-13.34,9.43-18.05,25C98.65,278.64,91.17,295.23,98.16,316.21Z"/><path class="cls-2" d="M277.45,315.87s-15.66-23.55-6.67-50.74c7.16-21.63,29.27-31.06,29.27-31.06S331,218.46,357,245.62c0,0,7.64,8.94,9.6,19.52a43.38,43.38,0,0,1-4.07,27.65s-3.9,12.85-23.42,24.23a46.7,46.7,0,0,1-19.52,4.39v14.8A58.93,58.93,0,0,1,301.2,323s-7.64-8.62-8.94-15.45c0,0,.16-7.32,7.81-15.12,0,0,8.78-10.08,19.52-14.47v14.31s14.31-.49,28-17.4c0,0,6.51-7.16,5-15.12,0,0-2-8.62-8.78-14.15a74.21,74.21,0,0,0-10.73-8.29s-11.06-6-13.5-6.34v15.61s-13.17-1.14-23.58,6.67c0,0-13.34,9.43-18.05,25C277.94,278.31,270.46,294.89,277.45,315.87Z"/></g><g id="Layer_4" data-name="Layer 4"><path class="cls-3" d="M217,291.58V239s-25.27-13.29-33.34-18.5-21.1-10.16-19.8-29.44c0,0,2.34-12.76,19.8-26.31,0,0,15.63-20.58,31.26-29.7,0,0,8.34-5.21,15.63,2.08,0,0,2.61.78,9.12,9.38,0,0,10.42,17.19,16.67,30.22,0,0,14.59-2.08,27.87,1,0,0,7.82,2.08,5.21,9.38,0,0,0,8.6-12,9.12L246.22,196s-1,1.3-17.19-23.45l-23.18,25.53,34.39,22.4.52,72.94s1.56,9.38-8.6,9.38c0,0-10.94-1.3-10.94-2.87C221.22,299.92,217,300.18,217,291.58Z"/><circle class="cls-3" cx="255.34" cy="120.43" r="21.36"/></g></svg>